<?xml version="1.0" encoding="UTF-8"?>
<svg width="67px" height="42px" viewBox="0 0 67 42" version="1.1" xmlns="http://www.w3.org/2000/svg" xmlns:xlink="http://www.w3.org/1999/xlink">
    <!-- Generator: Sketch 54.1 (76490) - https://sketchapp.com -->
    <title>behance2</title>
    <desc>Created with Sketch.</desc>
    <g id="Page-1" stroke="none" stroke-width="1" fill="none" fill-rule="evenodd">
        <g id="Index" transform="translate(-990.000000, -5674.000000)" fill="#DADADA">
            <g id="LogosList" transform="translate(0.000000, 5605.000000)">
                <g id="Logos" transform="translate(228.000000, 67.000000)">
                    <g id="behance2" transform="translate(762.000000, 2.500000)">
                        <path d="M60.3162519,5.83179104 L43.5811131,5.83179104 L43.5811131,1.7363806 L60.3176494,1.7363806 L60.3176494,5.83179104 L60.3162519,5.83179104 L60.3162519,5.83179104 Z M32.4401409,22.6257276 C33.5199675,24.2735299 34.0595703,26.2742687 34.0595703,28.6232015 C34.0595703,31.0522985 33.4511779,33.2314179 32.2134301,35.1562761 C31.4259983,36.4300299 30.4483468,37.5059739 29.2736433,38.3721754 C27.950646,39.3739216 26.3843229,40.0608246 24.5836801,40.4278358 C22.777292,40.795459 20.8221443,40.9811828 18.7160631,40.9811828 L0,40.9811828 L0,0.0377873134 L20.0701167,0.0377873134 C25.1290283,0.118869403 28.715562,1.56289552 30.8334446,4.39877985 C32.1042673,6.13806716 32.7339332,8.22508955 32.7339332,10.6509739 C32.7339332,13.1541157 32.0966585,15.1569963 30.8134133,16.6787388 C30.0995849,17.5319366 29.0450691,18.3080299 27.6490896,19.0085485 C29.763556,19.7711791 31.3679231,20.9721119 32.4401409,22.6257276 L32.4401409,22.6257276 Z M9.58427652,16.1797015 L18.3781709,16.1797015 C20.1853354,16.1797015 21.6462225,15.8412985 22.7713913,15.1647985 C23.8957837,14.4893694 24.4568153,13.2887425 24.4568153,11.5649067 C24.4568153,9.66039552 23.7139492,8.39627985 22.2246456,7.78785821 C20.944506,7.36516045 19.3065982,7.14746269 17.319152,7.14746269 L9.58427652,7.14746269 L9.58427652,16.1797015 L9.58427652,16.1797015 Z M25.3035646,28.0383396 C25.3035646,25.911541 24.4212558,24.4412015 22.6602099,23.6522575 C21.6754154,23.2038582 20.2859578,22.9746866 18.5044146,22.9583172 L9.58427652,22.9583172 L9.58427652,33.8695187 L18.3663695,33.8695187 C20.1705837,33.8695187 21.567029,33.6368284 22.5748051,33.1514067 C24.3922182,32.2588918 25.3035646,30.5602985 25.3035646,28.0383396 L25.3035646,28.0383396 Z M66.5254879,21.3775224 C66.7276642,22.7170597 66.8191249,24.6605821 66.7820127,27.2008993 L45.1081501,27.2008993 C45.2277167,30.1483097 46.2604931,32.2094776 48.2192123,33.3889925 C49.4004376,34.1286754 50.8325977,34.4898731 52.5096364,34.4898731 C54.2779806,34.4898731 55.7193023,34.0494291 56.8287877,33.1440634 C57.433298,32.6641493 57.9665342,31.9867313 58.4275646,31.1320037 L66.3717593,31.1320037 C66.1636823,32.8728209 65.2071491,34.6384216 63.4881843,36.4326306 C60.8249536,39.2844254 57.0898156,40.7143769 52.2928636,40.7143769 C48.3300832,40.7143769 44.8376499,39.5083955 41.8062471,37.105153 C38.7849375,34.6934963 37.267528,30.7822799 37.267528,25.3566642 C37.267528,20.2688396 38.6298115,16.3746045 41.3635399,13.6640149 C44.1073617,10.9483769 47.648398,9.59675373 52.0132019,9.59675373 C54.6003448,9.59675373 56.9325156,10.0523433 59.0131306,10.9682649 C61.0872239,11.8851045 62.8013749,13.3280597 64.1513911,15.3112052 C65.3731449,17.0576828 66.1588686,19.0770858 66.5254879,21.3775224 L66.5254879,21.3775224 Z M58.7059841,22.1415299 C58.5603302,20.1034627 57.8696387,18.5609142 56.6259902,17.506694 C55.3925903,16.4495672 53.8517333,15.9188619 52.0132019,15.9188619 C50.0122462,15.9188619 48.4671966,16.4861306 47.3693573,17.6010858 C46.2640646,18.7137463 45.5763234,20.2264627 45.2944877,22.1416828 L58.7059841,22.1416828 L58.7059841,22.1415299 L58.7059841,22.1415299 Z" id="Behance"></path>
                    </g>
                </g>
            </g>
        </g>
    </g>
</svg>