<?xml version="1.0" encoding="UTF-8"?>
<svg width="46px" height="46px" viewBox="0 0 46 46" version="1.1" xmlns="http://www.w3.org/2000/svg" xmlns:xlink="http://www.w3.org/1999/xlink">
    <!-- Generator: Sketch 54.1 (76490) - https://sketchapp.com -->
    <title>dribbble11</title>
    <desc>Created with Sketch.</desc>
    <g id="Page-1" stroke="none" stroke-width="1" fill="none" fill-rule="evenodd">
        <g id="Index" transform="translate(-838.000000, -5672.000000)" fill="#DADADA">
            <g id="LogosList" transform="translate(0.000000, 5605.000000)">
                <g id="Logos" transform="translate(228.000000, 67.000000)">
                    <g id="dribbble11" transform="translate(610.000000, 0.000000)">
                        <path d="M22.9882183,0.0308247423 C10.312618,0.0312989691 0.000474208765,10.3296082 0,22.9890928 C0.000474208765,35.6485773 10.312618,45.9473608 22.9882183,45.9473608 C35.6638186,45.9473608 45.9759624,35.6485773 45.9764366,22.9890928 C45.9759624,10.3296082 35.6638186,0.0312989691 22.9882183,0.0308247423 L22.9882183,0.0308247423 Z M38.1131069,10.8678557 C40.7345329,14.1167835 42.3297712,18.2221649 42.4037478,22.6922268 C41.5312037,22.5158144 37.8352205,21.8243918 33.4189143,21.8243918 C31.9943912,21.8243918 30.4949431,21.8969485 28.9917013,22.0814227 C28.8650875,21.7741237 28.7370512,21.4649278 28.6047469,21.1547835 C28.2139989,20.2376289 27.7952726,19.3280619 27.3590005,18.4331959 C34.1539379,15.6328866 37.4345141,11.7465979 38.1131069,10.8678557 L38.1131069,10.8678557 Z M22.9882183,3.62356701 C27.8858464,3.62356701 32.3633256,5.44412371 35.7833192,8.44218557 C35.2412986,9.18150515 32.3059463,12.8496495 25.7528554,15.3279588 C22.7202904,9.78092784 19.398458,5.1908866 18.6084262,4.12435052 C20.0168262,3.79760825 21.4821313,3.62356701 22.9882183,3.62356701 L22.9882183,3.62356701 Z M14.6459377,5.50814433 C15.3155205,6.42909278 18.6397239,11.0684536 21.7505334,16.5713814 C13.4016139,18.7651546 5.98688566,18.9093196 4.1981702,18.9093196 L4.00848669,18.9093196 C5.29311824,12.9838557 9.29733705,8.05995876 14.6459377,5.50814433 L14.6459377,5.50814433 Z M3.56699833,23.0189691 C3.56699833,22.8596289 3.570792,22.6998144 3.57553409,22.54 C3.69171524,22.5418969 3.86195618,22.5437938 4.0848343,22.5437938 C6.49381483,22.5437938 14.8598059,22.3431959 23.480447,19.784268 C24.0034993,20.8085979 24.5023669,21.8471546 24.9642462,22.8847629 C24.7484812,22.9473608 24.5327163,23.0109072 24.3193223,23.0796701 C14.6136915,26.2152577 9.27694607,34.5142268 8.45656491,35.8700412 C5.41593831,32.4442268 3.56699833,27.9442887 3.56699833,23.0189691 L3.56699833,23.0189691 Z M22.9882183,42.4148454 C18.5320785,42.4148454 14.424008,40.9058557 11.1429576,38.3768041 C11.6973076,37.2889278 15.72334,30.038 26.3612653,26.3352371 C26.3688526,26.332866 26.3764399,26.3300206 26.3835531,26.3271753 C29.0490805,33.272701 30.17912,39.1014227 30.4906752,40.9068041 C28.1812785,41.8775464 25.6461584,42.4148454 22.9882183,42.4148454 L22.9882183,42.4148454 Z M33.9870164,38.9951959 C33.7266758,37.5013814 32.6805713,32.0382887 30.2644776,25.3758763 C31.6197663,25.166268 32.9385408,25.0832784 34.1743289,25.0832784 C38.2330817,25.0828041 41.4083836,25.9715052 42.1462524,26.1958144 C41.2689662,31.4886598 38.2397206,36.0654227 33.9870164,38.9951959 L33.9870164,38.9951959 Z" id="Shape"></path>
                    </g>
                </g>
            </g>
        </g>
    </g>
</svg>