<?xml version="1.0" encoding="UTF-8"?>
<svg width="17px" height="24px" viewBox="0 0 17 24" version="1.1" xmlns="http://www.w3.org/2000/svg" xmlns:xlink="http://www.w3.org/1999/xlink">
    <!-- Generator: Sketch 54.1 (76490) - https://sketchapp.com -->
    <title>F</title>
    <desc>Created with Sketch.</desc>
    <g id="Page-1" stroke="none" stroke-width="1" fill="none" fill-rule="evenodd">
        <g id="Index" transform="translate(-801.000000, -6938.000000)" fill="#FFFFFF">
            <g id="Contact" transform="translate(0.000000, 5890.000000)">
                <g id="Map" transform="translate(0.000000, 804.000000)">
                    <g id="MapPin" transform="translate(779.000000, 228.000000)">
                        <g id="F" transform="translate(22.102748, 16.078125)">
                            <path d="M16.5567984,3.73846451 C16.5567984,4.03283179 16.2552174,4.32719907 16.0591897,4.32719907 L6.96652174,4.32719907 L11.6108696,9.75827546 L13.1187747,9.75827546 C13.5259091,9.75827546 13.8274901,9.9496142 13.8274901,10.2439815 L13.8274901,13.49674 C13.8274901,13.7911073 13.5259091,14.0854745 13.1187747,14.0854745 L4.44832016,14.0854745 L4.44832016,23.2550154 C4.44832016,23.5493827 4.25229249,23.84375 3.95071146,23.84375 L0.603162055,23.84375 C0.301581028,23.84375 0,23.5493827 0,23.2550154 L0,9.75827546 L5.76019763,9.75827546 L0,2.9583912 L0,0.588734568 C0,0.294367284 0.301581028,0 0.603162055,0 L16.0441107,0 C16.3456917,0 16.5417194,0.294367284 16.5417194,0.588734568 L16.5567984,3.73846451 L16.5567984,3.73846451 Z" id="Shape"></path>
                        </g>
                    </g>
                </g>
            </g>
        </g>
    </g>
</svg>