<?xml version="1.0" encoding="UTF-8"?>
<svg width="42px" height="46px" viewBox="0 0 42 46" version="1.1" xmlns="http://www.w3.org/2000/svg" xmlns:xlink="http://www.w3.org/1999/xlink">
    <!-- Generator: Sketch 54.1 (76490) - https://sketchapp.com -->
    <title>html3</title>
    <desc>Created with Sketch.</desc>
    <g id="Page-1" stroke="none" stroke-width="1" fill="none" fill-rule="evenodd">
        <g id="Index" transform="translate(-228.000000, -5672.000000)" fill="#DADADA">
            <g id="LogosList" transform="translate(0.000000, 5605.000000)">
                <g id="Logos" transform="translate(228.000000, 67.000000)">
                    <g id="html3">
                        <path d="M0.0463407146,0 L3.78708561,41.3496929 L20.5799988,45.9425431 L37.4169794,41.3428015 L41.164894,0 L0.0463407146,0 L0.0463407146,0 Z M33.0209943,13.5238277 L33.0032449,13.5238277 L13.3233926,13.5238277 L13.7924831,18.7170899 L32.5531279,18.7170899 L31.1396487,34.2859363 L20.6046556,37.1652434 L20.5941633,37.1686891 L20.5870811,37.1686891 L20.5815726,37.1686891 L10.0359998,34.2859363 L9.31509568,26.3217341 L14.4835718,26.3217341 L14.8500131,30.3700787 L20.5816601,31.8916966 L20.5943382,31.8882509 L26.3292202,30.3631011 L26.9244798,23.78803 L9.08496595,23.78803 L7.69631834,8.45297378 L33.4812537,8.45297378 L33.0209943,13.5238277 L33.0209943,13.5238277 Z" id="Shape"></path>
                    </g>
                </g>
            </g>
        </g>
    </g>
</svg>