<?xml version="1.0" encoding="UTF-8"?>
<svg width="46px" height="46px" viewBox="0 0 46 46" version="1.1" xmlns="http://www.w3.org/2000/svg" xmlns:xlink="http://www.w3.org/1999/xlink">
    <!-- Generator: Sketch 54.1 (76490) - https://sketchapp.com -->
    <title>html25</title>
    <desc>Created with Sketch.</desc>
    <g id="Page-1" stroke="none" stroke-width="1" fill="none" fill-rule="evenodd">
        <g id="Index" transform="translate(-1325.000000, -5672.000000)" fill="#DADADA">
            <g id="LogosList" transform="translate(0.000000, 5605.000000)">
                <g id="Logos" transform="translate(228.000000, 67.000000)">
                    <g id="html25" transform="translate(1097.000000, 0.000000)">
                        <path d="M0,0.196545455 L0,45.8055455 L46,45.8055455 L46,0.196545455 L0,0.196545455 L0,0.196545455 Z M42.2091818,3.98736364 L42.2091818,42.0168182 L3.79081818,42.0168182 L3.79081818,3.98736364 C7.084,3.98527273 38.9139091,3.98527273 42.2091818,3.98736364 L42.2091818,3.98736364 Z" id="Shape"></path>
                        <polygon id="Shape" points="18.0487273 29.5738182 5.95909091 24.3130909 5.95909091 21.4025455 18.0487273 16.169 18.0487273 19.5980909 9.62445455 22.8243636 18.0487273 26.174"></polygon>
                        <polygon id="Shape" points="19.1694545 31.8821818 23.5457273 13.6536364 26.0799091 13.6536364 21.6555455 31.8821818"></polygon>
                        <path d="M27.1839091,29.5738182 L27.1839091,26.1760909 L35.6249091,22.8452727 L27.1839091,19.5541818 L27.1839091,16.1710909 L39.2860909,21.4088182 L39.2860909,24.2942727 C39.2860909,24.2963636 27.1839091,29.5738182 27.1839091,29.5738182 L27.1839091,29.5738182 Z" id="Shape"></path>
                    </g>
                </g>
            </g>
        </g>
    </g>
</svg>