<?xml version="1.0" encoding="UTF-8"?>
<svg width="47px" height="46px" viewBox="0 0 47 46" version="1.1" xmlns="http://www.w3.org/2000/svg" xmlns:xlink="http://www.w3.org/1999/xlink">
    <!-- Generator: Sketch 54.1 (76490) - https://sketchapp.com -->
    <title>fileformat7</title>
    <desc>Created with Sketch.</desc>
    <g id="Page-1" stroke="none" stroke-width="1" fill="none" fill-rule="evenodd">
        <g id="Index" transform="translate(-534.000000, -5672.000000)" fill="#DADADA">
            <g id="LogosList" transform="translate(0.000000, 5605.000000)">
                <g id="Logos" transform="translate(228.000000, 67.000000)">
                    <g id="fileformat7" transform="translate(306.000000, 0.000000)">
                        <path d="M45.1320687,0 L1.49170785,0 C0.667837607,0 0,0.658108626 0,1.46964856 L0,44.4646581 C0,45.2761981 0.667837607,45.9343067 1.49170785,45.9343067 L45.1320687,45.9343067 C45.9559389,45.9343067 46.6237765,45.2761981 46.6237765,44.4646581 L46.6237765,1.46964856 C46.6237765,0.658108626 45.9559389,0 45.1320687,0 L45.1320687,0 Z M21.4246541,25.5324984 C21.4246541,28.2682492 19.8682061,29.9677508 17.3624352,29.9677508 C15.7886834,29.9677508 14.3823013,29.1900128 13.4023984,27.7778275 C12.9690573,27.1530799 13.1316534,26.3003898 13.7657784,25.8733099 C14.4000526,25.44623 15.2656907,25.6067157 15.6988826,26.2313163 C16.1574336,26.8923642 16.7171224,27.2274441 17.3624352,27.2274441 C17.8724501,27.2274441 18.6432156,27.2274441 18.6432156,25.5326454 L18.6432156,18.5566645 L14.8430898,18.5566645 C14.0750095,18.5566645 13.4523706,17.9432332 13.4523706,17.1865112 C13.4523706,16.4297891 14.0750095,15.8163578 14.8430898,15.8163578 L20.0339348,15.8163578 C20.8020152,15.8163578 21.4246541,16.4297891 21.4246541,17.1865112 L21.4246541,25.5324984 L21.4246541,25.5324984 Z M28.2590628,30.2159744 C26.3945771,30.2159744 24.4923513,29.4414696 23.2948082,28.1947668 C22.7667436,27.6451182 22.7910585,26.7777316 23.348808,26.257623 C23.9068559,25.7373674 24.7874111,25.7613227 25.3150281,26.3108243 C25.9842083,27.0074377 27.1672818,27.4755208 28.2590628,27.4755208 C29.3767995,27.4755208 30.682193,27.1539617 30.682193,26.2482173 C30.6893532,25.3943514 30.227968,25.0745559 28.0843838,24.4348179 C26.1933457,23.8706198 23.3355318,23.0177827 23.3355318,19.7723578 C23.3355318,17.3474377 25.4695691,15.7181853 28.6458626,15.7181853 C30.0598525,15.7181853 31.6016817,16.1405623 32.6697446,16.8207157 C33.314759,17.2314824 33.4997308,18.0797636 33.0827985,18.7153866 C32.6657169,19.3508626 31.8047032,19.533099 31.1596887,19.1223323 C30.5462984,18.7316997 29.5125449,18.458639 28.6458626,18.458639 C27.4793471,18.458639 26.1171195,18.8028307 26.1171195,19.7723578 C26.1171195,20.825361 26.7419959,21.1708754 28.890801,21.8120831 C30.7221708,22.3584984 33.4897364,23.1842939 33.4637806,26.2595335 C33.4636315,28.6214058 31.3721079,30.2159744 28.2590628,30.2159744 L28.2590628,30.2159744 Z" id="Shape"></path>
                    </g>
                </g>
            </g>
        </g>
    </g>
</svg>