<?xml version="1.0" encoding="UTF-8"?>
<svg width="46px" height="46px" viewBox="0 0 46 46" version="1.1" xmlns="http://www.w3.org/2000/svg" xmlns:xlink="http://www.w3.org/1999/xlink">
    <!-- Generator: Sketch 54.1 (76490) - https://sketchapp.com -->
    <title>pinterest11</title>
    <desc>Created with Sketch.</desc>
    <g id="Page-1" stroke="none" stroke-width="1" fill="none" fill-rule="evenodd">
        <g id="Index" transform="translate(-1164.000000, -5672.000000)" fill="#DADADA">
            <g id="LogosList" transform="translate(0.000000, 5605.000000)">
                <g id="Logos" transform="translate(228.000000, 67.000000)">
                    <g id="pinterest11" transform="translate(936.000000, 0.000000)">
                        <path d="M22.9713146,0 C10.284618,0 0,10.284618 0,22.9713146 C0,35.6579251 10.2843596,45.9425431 22.9713146,45.9425431 C35.6579251,45.9425431 45.9426292,35.6579251 45.9426292,22.9713146 C45.9425431,10.284618 35.6579251,0 22.9713146,0 L22.9713146,0 Z M25.1986105,30.6934569 C23.1114682,30.5313371 22.235573,29.4975431 20.5996442,28.503633 C19.6996292,33.2225955 18.6002809,37.7468764 15.3441011,40.1099326 C14.3389064,32.977779 16.8198914,27.6209326 17.9718727,21.934161 C16.0074831,18.6272434 18.2082472,11.9724045 22.3516929,13.6127266 C27.4495955,15.6293184 17.9368989,25.9062697 24.3227154,27.1898764 C30.9906479,28.5299064 33.712573,15.6207903 29.5783446,11.4228165 C23.60403,5.3612397 12.1884494,11.2846442 13.5922247,19.9633109 C13.9338652,22.0850824 16.1258427,22.7287378 14.4681199,25.6568876 C10.6446929,24.8093333 9.50373783,21.7938352 9.65061049,17.7734007 C9.88698502,11.1927303 15.5632472,6.58549438 21.256824,5.94829963 C28.4569438,5.14235206 35.2148951,8.59123221 36.1479888,15.364603 C37.1984944,23.0092172 32.8976667,31.2888727 25.1986105,30.6934569 L25.1986105,30.6934569 Z" id="Shape"></path>
                    </g>
                </g>
            </g>
        </g>
    </g>
</svg>